<svg width="91.817047" height="31.183105" viewBox="0 0 91.817 31.1831" fill="none" xmlns="http://www.w3.org/2000/svg" xmlns:xlink="http://www.w3.org/1999/xlink">
	<desc>
			Created with Pixso.
	</desc>
	<defs/>
	<path id="Vector" d="M20.81 29.63L20.25 29.63C20.25 29.62 20.25 29.62 20.24 29.61L20.23 29.54C20.22 29.5 20.21 29.45 20.2 29.41C20.19 29.39 20.19 29.37 20.18 29.34C20.17 29.29 20.15 29.23 20.14 29.17L20.13 29.15C20.11 29.09 20.1 29.02 20.08 28.96L20.06 28.9C20.05 28.86 20.03 28.81 20.02 28.77C20.01 28.75 20 28.72 20 28.7C19.98 28.66 19.97 28.62 19.95 28.58C19.95 28.56 19.94 28.53 19.93 28.51C19.91 28.46 19.89 28.41 19.87 28.36C19.87 28.35 19.87 28.34 19.86 28.33C19.84 28.27 19.81 28.21 19.79 28.15C19.78 28.13 19.77 28.1 19.76 28.08C19.75 28.05 19.73 28 19.71 27.97L19.68 27.89C19.66 27.86 19.65 27.82 19.63 27.78C19.62 27.76 19.61 27.73 19.6 27.71C19.58 27.67 19.56 27.62 19.54 27.58C19.53 27.57 19.52 27.55 19.51 27.53C19.48 27.48 19.45 27.42 19.43 27.37L19.39 27.3L19.33 27.2L19.29 27.12C19.27 27.09 19.25 27.06 19.23 27.03C19.22 27 19.2 26.98 19.19 26.95C19.17 26.92 19.15 26.88 19.13 26.85L19.07 26.76C19.04 26.72 19.01 26.68 18.99 26.63C18.97 26.61 18.95 26.58 18.93 26.56C18.92 26.53 18.9 26.5 18.88 26.47C18.86 26.45 18.84 26.42 18.82 26.39C18.8 26.36 18.79 26.34 18.77 26.32C18.75 26.29 18.73 26.26 18.71 26.23L18.65 26.16C18.61 26.11 18.58 26.06 18.54 26.01L18.48 25.94C18.46 25.91 18.44 25.88 18.41 25.86L18.36 25.79C18.34 25.76 18.31 25.74 18.29 25.71L18.24 25.65L18.16 25.56L18.11 25.51C18.02 25.41 17.92 25.3 17.82 25.21L17.78 25.16L17.69 25.07L17.65 25.03C17.61 25 17.58 24.97 17.55 24.94L17.52 24.91C17.41 24.81 17.29 24.71 17.17 24.61L17.14 24.58C17.11 24.55 17.07 24.53 17.03 24.5L17 24.47C16.96 24.44 16.92 24.41 16.88 24.38L16.86 24.36C16.74 24.26 16.6 24.17 16.47 24.08L16.45 24.06C16.41 24.03 16.37 24.01 16.32 23.98L16.3 23.96C16.25 23.93 16.21 23.9 16.16 23.87L16.16 23.87C16.01 23.78 15.86 23.69 15.71 23.6L15.71 23.6C15.66 23.57 15.61 23.55 15.56 23.52L15.54 23.51C15.29 23.38 15.03 23.25 14.76 23.14L14.74 23.13C14.67 23.1 14.6 23.07 14.53 23.04L15.94 23.04C16.17 23.04 16.36 22.79 16.36 22.48C16.36 22.17 16.17 21.92 15.94 21.92L15.52 21.92C15.55 21.86 15.58 21.79 15.61 21.71C16.01 21.47 16.71 20.97 17.4 20.05L17.41 20.04C17.46 19.97 17.51 19.9 17.56 19.83L17.57 19.82C17.62 19.74 17.67 19.67 17.72 19.59L17.74 19.57C17.76 19.53 17.78 19.5 17.81 19.46C17.81 19.46 17.81 19.45 17.81 19.45C17.83 19.42 17.86 19.37 17.88 19.33L17.9 19.31C17.92 19.27 17.94 19.24 17.96 19.2C17.96 19.2 17.97 19.19 17.97 19.18C17.99 19.14 18.02 19.1 18.04 19.06L18.06 19.03C18.07 19 18.09 18.96 18.11 18.93C18.12 18.92 18.12 18.91 18.13 18.9C18.15 18.86 18.17 18.81 18.19 18.77L18.21 18.74C18.23 18.7 18.25 18.67 18.26 18.63L18.28 18.59C18.3 18.55 18.32 18.51 18.34 18.46L18.36 18.43C18.37 18.39 18.39 18.36 18.41 18.32L18.43 18.27C18.45 18.23 18.47 18.18 18.49 18.14C18.49 18.13 18.49 18.12 18.5 18.11C18.52 18.07 18.53 18.03 18.55 17.98L18.57 17.93C18.59 17.89 18.6 17.85 18.62 17.81L18.63 17.78C18.65 17.73 18.67 17.68 18.68 17.63L18.7 17.58C18.72 17.54 18.73 17.5 18.75 17.45C18.75 17.44 18.76 17.42 18.76 17.41C18.78 17.36 18.8 17.31 18.81 17.25C18.82 17.23 18.82 17.22 18.83 17.2L18.87 17.07C18.87 17.06 18.88 17.04 18.88 17.02C18.9 16.97 18.92 16.91 18.93 16.86C18.94 16.84 18.94 16.82 18.95 16.8C18.96 16.76 18.97 16.72 18.98 16.67C18.99 16.65 18.99 16.63 19 16.61C19.01 16.56 19.03 16.5 19.04 16.44L19.05 16.39C19.06 16.34 19.08 16.3 19.09 16.25L19.1 16.18C19.11 16.12 19.13 16.06 19.14 16C19.14 15.99 19.14 15.98 19.15 15.96C19.16 15.91 19.17 15.86 19.18 15.8C19.18 15.78 19.19 15.76 19.19 15.73C19.2 15.68 19.21 15.62 19.22 15.57C19.22 15.55 19.23 15.54 19.23 15.53C19.24 15.47 19.25 15.4 19.26 15.33C19.26 15.31 19.27 15.29 19.27 15.26C19.28 15.21 19.29 15.16 19.29 15.1L19.3 15.05C19.31 14.98 19.32 14.91 19.33 14.84C19.33 14.82 19.33 14.8 19.34 14.77C19.34 14.72 19.35 14.66 19.36 14.61C19.36 14.59 19.36 14.57 19.36 14.55C19.37 14.47 19.38 14.4 19.38 14.33C19.38 14.31 19.39 14.29 19.39 14.26C19.39 14.21 19.4 14.15 19.4 14.09C19.4 14.06 19.41 14.04 19.41 14.02C19.41 13.94 19.42 13.87 19.42 13.79C19.42 13.77 19.42 13.75 19.43 13.74C19.43 13.67 19.43 13.61 19.44 13.54C19.44 13.52 19.44 13.5 19.44 13.47C19.44 13.39 19.45 13.31 19.45 13.23C19.45 13.22 19.45 13.21 19.45 13.19C19.45 13.12 19.45 13.05 19.45 12.97C19.45 12.95 19.45 12.92 19.45 12.9C19.45 12.82 19.45 12.74 19.45 12.66L19.45 12.64C19.45 12.55 19.45 12.47 19.45 12.38L19.45 12.3C19.45 12.23 19.45 12.15 19.45 12.07L19.45 12.03C19.45 11.94 19.44 11.85 19.44 11.76C19.44 11.73 19.44 11.71 19.44 11.69C19.43 11.61 19.43 11.53 19.42 11.45C19.42 11.44 19.42 11.42 19.42 11.4C19.41 11.3 19.41 11.21 19.4 11.11L19.4 11.05C19.39 10.97 19.39 10.89 19.38 10.81C19.38 10.78 19.38 10.76 19.37 10.74C19.37 10.64 19.36 10.54 19.35 10.44C19.35 10.42 19.34 10.41 19.34 10.39C19.33 10.3 19.32 10.22 19.31 10.13C19.31 10.11 19.31 10.08 19.31 10.06C19.29 9.95 19.28 9.85 19.27 9.75C19.27 9.73 19.27 9.72 19.27 9.71C19.25 9.62 19.24 9.52 19.23 9.43C19.23 9.4 19.22 9.37 19.22 9.35C19.2 9.24 19.19 9.13 19.17 9.03C17.59 -1.63 6.4 0.1 6.4 0.1L6.76 2.39L0 9.17L0.29 11.78L2.85 13.28C2.97 13 3.12 12.74 3.29 12.5C4.95 10.69 8.15 9.27 9.07 8.98C9.26 8.92 9.36 8.89 9.36 8.89C4.97 14.28 5.47 20.45 5.66 21.93C5.46 21.96 5.3 22.2 5.3 22.48C5.3 22.79 5.49 23.04 5.72 23.04L7.13 23.04C4.78 23.98 2.92 25.75 1.94 27.98C1.94 27.99 1.94 27.99 1.94 27.99C1.87 28.16 1.8 28.33 1.74 28.5C1.74 28.5 1.74 28.5 1.74 28.5C1.72 28.55 1.71 28.59 1.69 28.64C1.68 28.66 1.68 28.67 1.67 28.69C1.66 28.73 1.65 28.78 1.63 28.82C1.63 28.84 1.62 28.86 1.61 28.88C1.6 28.92 1.59 28.97 1.58 29.01L1.56 29.08C1.54 29.12 1.53 29.16 1.52 29.2C1.52 29.22 1.51 29.25 1.5 29.28C1.49 29.32 1.48 29.35 1.47 29.39C1.46 29.43 1.45 29.47 1.45 29.51C1.44 29.55 1.43 29.59 1.42 29.64L0.85 29.64C0.75 29.63 0.64 29.65 0.54 29.69C0.44 29.73 0.34 29.78 0.27 29.86C0.19 29.93 0.13 30.01 0.09 30.11C0.04 30.2 0.02 30.3 0.02 30.41C0.02 30.51 0.04 30.61 0.09 30.71C0.13 30.8 0.19 30.89 0.27 30.96C0.34 31.03 0.44 31.09 0.54 31.12C0.64 31.16 0.75 31.18 0.85 31.18L20.82 31.18C20.93 31.18 21.03 31.16 21.14 31.12C21.24 31.09 21.33 31.03 21.41 30.96C21.48 30.89 21.54 30.8 21.59 30.71C21.63 30.61 21.65 30.51 21.65 30.41C21.65 30.3 21.63 30.2 21.59 30.11C21.54 30.01 21.48 29.93 21.41 29.86C21.33 29.78 21.24 29.73 21.14 29.69C21.03 29.65 20.93 29.63 20.82 29.64L20.81 29.63Z" fill="#595653" fill-opacity="1.000000" fill-rule="nonzero"/>
	<path id="Vector" d="" fill="#E7DBD0" fill-opacity="0" fill-rule="evenodd"/>
	<path id="Vector" d="M44.2 29.63L43.64 29.63C43.64 29.62 43.63 29.62 43.63 29.61L43.62 29.54C43.61 29.5 43.6 29.45 43.58 29.41C43.58 29.39 43.57 29.37 43.57 29.34C43.56 29.29 43.54 29.23 43.52 29.17L43.52 29.15C43.5 29.09 43.48 29.02 43.46 28.96L43.45 28.9C43.43 28.86 43.42 28.81 43.41 28.77C43.4 28.75 43.39 28.72 43.38 28.7C43.37 28.66 43.36 28.62 43.34 28.58C43.33 28.56 43.33 28.53 43.32 28.51C43.3 28.46 43.28 28.41 43.26 28.36C43.26 28.35 43.25 28.34 43.25 28.33C43.23 28.27 43.2 28.21 43.18 28.15C43.17 28.13 43.16 28.1 43.15 28.08C43.13 28.05 43.12 28 43.1 27.97L43.07 27.89C43.05 27.86 43.03 27.82 43.02 27.78C43.01 27.76 43 27.73 42.98 27.71C42.96 27.67 42.95 27.62 42.92 27.58C42.91 27.57 42.91 27.55 42.9 27.53C42.87 27.48 42.84 27.42 42.81 27.37L42.77 27.3L42.72 27.2L42.67 27.12C42.66 27.09 42.64 27.06 42.62 27.03C42.6 27 42.59 26.98 42.57 26.95C42.55 26.92 42.54 26.88 42.51 26.85L42.46 26.76C42.43 26.72 42.4 26.68 42.37 26.63C42.36 26.61 42.34 26.58 42.32 26.56C42.3 26.53 42.28 26.5 42.27 26.47C42.25 26.45 42.23 26.42 42.21 26.39C42.19 26.36 42.17 26.34 42.15 26.32C42.14 26.29 42.11 26.26 42.09 26.23L42.04 26.16C42 26.11 41.96 26.06 41.92 26.01L41.87 25.94C41.85 25.91 41.82 25.88 41.8 25.86L41.75 25.79C41.72 25.76 41.7 25.74 41.68 25.71L41.62 25.65L41.55 25.56L41.5 25.51C41.41 25.41 41.31 25.3 41.21 25.21L41.17 25.16L41.08 25.07L41.03 25.03C41 25 40.97 24.97 40.94 24.94L40.91 24.91C40.79 24.81 40.68 24.71 40.56 24.61L40.53 24.58C40.49 24.55 40.46 24.53 40.42 24.5L40.38 24.47C40.34 24.44 40.31 24.41 40.27 24.38L40.25 24.36C40.12 24.26 39.99 24.17 39.86 24.08L39.84 24.06C39.8 24.03 39.75 24.01 39.71 23.98L39.68 23.96C39.64 23.93 39.6 23.9 39.55 23.87L39.54 23.87C39.4 23.78 39.25 23.69 39.1 23.6L39.09 23.6C39.05 23.57 39 23.55 38.95 23.52L38.93 23.51C38.68 23.38 38.41 23.25 38.15 23.14L38.13 23.13C38.06 23.1 37.99 23.07 37.92 23.04L39.33 23.04C39.56 23.04 39.75 22.79 39.75 22.48C39.75 22.17 39.56 21.92 39.33 21.92L38.91 21.92C38.93 21.86 38.96 21.79 38.99 21.71C39.39 21.47 40.09 20.97 40.79 20.05L40.79 20.04C40.85 19.97 40.9 19.9 40.95 19.83L40.96 19.82C41.01 19.74 41.06 19.67 41.11 19.59L41.12 19.57C41.15 19.53 41.17 19.5 41.19 19.46C41.19 19.46 41.19 19.45 41.2 19.45C41.22 19.42 41.25 19.37 41.27 19.33L41.28 19.31C41.31 19.27 41.33 19.24 41.35 19.2C41.35 19.2 41.35 19.19 41.36 19.18C41.38 19.14 41.4 19.1 41.43 19.06L41.44 19.03C41.46 19 41.48 18.96 41.5 18.93C41.5 18.92 41.51 18.91 41.52 18.9C41.54 18.86 41.56 18.81 41.58 18.77L41.6 18.74C41.61 18.7 41.63 18.67 41.65 18.63L41.67 18.59C41.69 18.55 41.71 18.51 41.73 18.46L41.74 18.43C41.76 18.39 41.78 18.36 41.8 18.32L41.82 18.27C41.84 18.23 41.86 18.18 41.87 18.14C41.88 18.13 41.88 18.12 41.88 18.11C41.9 18.07 41.92 18.03 41.94 17.98L41.96 17.93C41.97 17.89 41.99 17.85 42.01 17.81L42.02 17.78C42.04 17.73 42.05 17.68 42.07 17.63L42.09 17.58C42.11 17.54 42.12 17.5 42.13 17.45C42.14 17.44 42.14 17.42 42.15 17.41C42.17 17.36 42.18 17.31 42.2 17.25C42.21 17.23 42.21 17.22 42.22 17.2L42.26 17.07C42.26 17.06 42.27 17.04 42.27 17.02C42.29 16.97 42.3 16.91 42.32 16.86C42.32 16.84 42.33 16.82 42.33 16.8C42.35 16.76 42.36 16.72 42.37 16.67C42.37 16.65 42.38 16.63 42.39 16.61C42.4 16.56 42.41 16.5 42.43 16.44L42.44 16.39C42.45 16.34 42.46 16.3 42.47 16.25L42.49 16.18C42.5 16.12 42.51 16.06 42.53 16C42.53 15.99 42.53 15.98 42.53 15.96C42.55 15.91 42.56 15.86 42.57 15.8C42.57 15.78 42.57 15.76 42.58 15.73C42.59 15.68 42.6 15.62 42.61 15.57C42.61 15.55 42.61 15.54 42.62 15.53C42.63 15.47 42.64 15.4 42.65 15.33C42.65 15.31 42.65 15.29 42.66 15.26C42.67 15.21 42.67 15.16 42.68 15.1L42.69 15.05C42.7 14.98 42.71 14.91 42.72 14.84C42.72 14.82 42.72 14.8 42.72 14.77C42.73 14.72 42.74 14.66 42.74 14.61C42.75 14.59 42.75 14.57 42.75 14.55C42.76 14.47 42.76 14.4 42.77 14.33C42.77 14.31 42.77 14.29 42.78 14.26C42.78 14.21 42.79 14.15 42.79 14.09C42.79 14.06 42.79 14.04 42.8 14.02C42.8 13.94 42.81 13.87 42.81 13.79C42.81 13.77 42.81 13.75 42.81 13.74C42.82 13.67 42.82 13.61 42.82 13.54C42.82 13.52 42.82 13.5 42.83 13.47C42.83 13.39 42.83 13.31 42.84 13.23C42.84 13.22 42.84 13.21 42.84 13.19C42.84 13.12 42.84 13.05 42.84 12.97C42.84 12.95 42.84 12.92 42.84 12.9C42.84 12.82 42.84 12.74 42.84 12.66L42.84 12.64C42.84 12.55 42.84 12.47 42.84 12.38L42.84 12.3C42.84 12.23 42.84 12.15 42.84 12.07L42.84 12.03C42.83 11.94 42.83 11.85 42.83 11.76C42.83 11.73 42.82 11.71 42.82 11.69C42.82 11.61 42.82 11.53 42.81 11.45C42.81 11.44 42.81 11.42 42.81 11.4C42.8 11.3 42.8 11.21 42.79 11.11L42.78 11.05C42.78 10.97 42.77 10.89 42.77 10.81C42.77 10.78 42.76 10.76 42.76 10.74C42.75 10.64 42.74 10.54 42.73 10.44C42.73 10.42 42.73 10.41 42.73 10.39C42.72 10.3 42.71 10.22 42.7 10.13C42.7 10.11 42.7 10.08 42.69 10.06C42.68 9.95 42.67 9.85 42.66 9.75C42.66 9.73 42.65 9.72 42.65 9.71C42.64 9.62 42.63 9.52 42.62 9.43C42.61 9.4 42.61 9.37 42.6 9.35C42.59 9.24 42.58 9.13 42.56 9.03C40.98 -1.63 29.79 0.1 29.79 0.1L30.15 2.39L23.38 9.17L23.68 11.78L26.24 13.28C26.36 13 26.5 12.74 26.68 12.5C28.33 10.69 31.54 9.27 32.46 8.98C32.64 8.92 32.75 8.89 32.75 8.89C28.35 14.28 28.85 20.45 29.05 21.93C28.85 21.96 28.69 22.2 28.69 22.48C28.69 22.79 28.88 23.04 29.11 23.04L30.52 23.04C28.17 23.98 26.3 25.75 25.33 27.98C25.33 27.99 25.33 27.99 25.33 27.99C25.25 28.16 25.19 28.33 25.13 28.5C25.13 28.5 25.13 28.5 25.13 28.5C25.11 28.55 25.09 28.59 25.08 28.64C25.07 28.66 25.07 28.67 25.06 28.69C25.05 28.73 25.03 28.78 25.02 28.82C25.01 28.84 25.01 28.86 25 28.88C24.99 28.92 24.98 28.97 24.96 29.01L24.94 29.08C24.93 29.12 24.92 29.16 24.91 29.2C24.9 29.22 24.9 29.25 24.89 29.28C24.88 29.32 24.87 29.35 24.86 29.39C24.85 29.43 24.84 29.47 24.83 29.51C24.82 29.55 24.81 29.59 24.8 29.64L24.24 29.64C24.13 29.63 24.02 29.65 23.92 29.69C23.82 29.73 23.73 29.78 23.65 29.86C23.58 29.93 23.52 30.01 23.47 30.11C23.43 30.2 23.41 30.3 23.41 30.41C23.41 30.51 23.43 30.61 23.47 30.71C23.52 30.8 23.58 30.89 23.65 30.96C23.73 31.03 23.82 31.09 23.92 31.12C24.02 31.16 24.13 31.18 24.24 31.18L44.21 31.18C44.31 31.18 44.42 31.16 44.52 31.12C44.62 31.09 44.72 31.03 44.79 30.96C44.87 30.89 44.93 30.8 44.97 30.71C45.02 30.61 45.04 30.51 45.04 30.41C45.04 30.3 45.02 30.2 44.97 30.11C44.93 30.01 44.87 29.93 44.79 29.86C44.72 29.78 44.62 29.73 44.52 29.69C44.42 29.65 44.31 29.63 44.21 29.64L44.2 29.63Z" fill="#595653" fill-opacity="1.000000" fill-rule="nonzero"/>
	<path id="Vector" d="" fill="#E7DBD0" fill-opacity="0" fill-rule="evenodd"/>
	<path id="Vector" d="M67.59 29.63L67.02 29.63C67.02 29.62 67.02 29.62 67.02 29.61L67 29.54C66.99 29.5 66.98 29.45 66.97 29.41C66.97 29.39 66.96 29.37 66.96 29.34C66.94 29.29 66.93 29.23 66.91 29.17L66.91 29.15C66.89 29.09 66.87 29.02 66.85 28.96L66.83 28.9C66.82 28.86 66.81 28.81 66.79 28.77C66.79 28.75 66.78 28.72 66.77 28.7C66.76 28.66 66.74 28.62 66.73 28.58C66.72 28.56 66.71 28.53 66.71 28.51C66.69 28.46 66.67 28.41 66.65 28.36C66.64 28.35 66.64 28.34 66.64 28.33C66.61 28.27 66.59 28.21 66.57 28.15C66.56 28.13 66.55 28.1 66.54 28.08C66.52 28.05 66.51 28 66.49 27.97L66.46 27.89C66.44 27.86 66.42 27.82 66.41 27.78C66.39 27.76 66.38 27.73 66.37 27.71C66.35 27.67 66.33 27.62 66.31 27.58C66.3 27.57 66.29 27.55 66.29 27.53C66.26 27.48 66.23 27.42 66.2 27.37L66.16 27.3L66.11 27.2L66.06 27.12C66.04 27.09 66.03 27.06 66.01 27.03C65.99 27 65.98 26.98 65.96 26.95C65.94 26.92 65.92 26.88 65.9 26.85L65.84 26.76C65.82 26.72 65.79 26.68 65.76 26.63C65.74 26.61 65.73 26.58 65.71 26.56C65.69 26.53 65.67 26.5 65.65 26.47C65.63 26.45 65.61 26.42 65.6 26.39C65.58 26.36 65.56 26.34 65.54 26.32C65.52 26.29 65.5 26.26 65.48 26.23L65.43 26.16C65.39 26.11 65.35 26.06 65.31 26.01L65.26 25.94C65.24 25.91 65.21 25.88 65.19 25.86L65.14 25.79C65.11 25.76 65.09 25.74 65.06 25.71L65.01 25.65L64.94 25.56L64.89 25.51C64.8 25.41 64.7 25.3 64.6 25.21L64.56 25.16L64.47 25.07L64.42 25.03C64.39 25 64.36 24.97 64.33 24.94L64.29 24.91C64.18 24.81 64.07 24.71 63.95 24.61L63.92 24.58C63.88 24.55 63.85 24.53 63.81 24.5L63.77 24.47C63.73 24.44 63.7 24.41 63.66 24.38L63.64 24.36C63.51 24.26 63.38 24.17 63.24 24.08L63.23 24.06C63.18 24.03 63.14 24.01 63.1 23.98L63.07 23.96C63.03 23.93 62.98 23.9 62.94 23.87L62.93 23.87C62.79 23.78 62.64 23.69 62.49 23.6L62.48 23.6C62.43 23.57 62.39 23.55 62.34 23.52L62.32 23.51C62.06 23.38 61.8 23.25 61.53 23.14L61.52 23.13C61.45 23.1 61.38 23.07 61.3 23.04L62.72 23.04C62.95 23.04 63.13 22.79 63.13 22.48C63.13 22.17 62.95 21.92 62.72 21.92L62.3 21.92C62.32 21.86 62.35 21.79 62.38 21.71C62.78 21.47 63.48 20.97 64.18 20.05L64.18 20.04C64.23 19.97 64.29 19.9 64.34 19.83L64.35 19.82C64.4 19.74 64.45 19.67 64.5 19.59L64.51 19.57C64.53 19.53 64.56 19.5 64.58 19.46C64.58 19.46 64.58 19.45 64.58 19.45C64.61 19.42 64.63 19.37 64.66 19.33L64.67 19.31C64.69 19.27 64.71 19.24 64.73 19.2C64.74 19.2 64.74 19.19 64.75 19.18C64.77 19.14 64.79 19.1 64.82 19.06L64.83 19.03C64.85 19 64.87 18.96 64.89 18.93C64.89 18.92 64.9 18.91 64.9 18.9C64.93 18.86 64.95 18.81 64.97 18.77L64.98 18.74C65 18.7 65.02 18.67 65.04 18.63L65.06 18.59C65.08 18.55 65.1 18.51 65.12 18.46L65.13 18.43C65.15 18.39 65.17 18.36 65.18 18.32L65.2 18.27C65.22 18.23 65.24 18.18 65.26 18.14C65.27 18.13 65.27 18.12 65.27 18.11C65.29 18.07 65.31 18.03 65.33 17.98L65.34 17.93C65.36 17.89 65.38 17.85 65.39 17.81L65.4 17.78C65.42 17.73 65.44 17.68 65.46 17.63L65.48 17.58C65.49 17.54 65.51 17.5 65.52 17.45C65.53 17.44 65.53 17.42 65.54 17.41C65.55 17.36 65.57 17.31 65.59 17.25C65.59 17.23 65.6 17.22 65.6 17.2L65.64 17.07C65.65 17.06 65.65 17.04 65.66 17.02C65.68 16.97 65.69 16.91 65.71 16.86C65.71 16.84 65.72 16.82 65.72 16.8C65.73 16.76 65.75 16.72 65.76 16.67C65.76 16.65 65.77 16.63 65.77 16.61C65.79 16.56 65.8 16.5 65.82 16.44L65.83 16.39C65.84 16.34 65.85 16.3 65.86 16.25L65.87 16.18C65.89 16.12 65.9 16.06 65.91 16C65.92 15.99 65.92 15.98 65.92 15.96C65.93 15.91 65.94 15.86 65.95 15.8C65.96 15.78 65.96 15.76 65.97 15.73C65.98 15.68 65.99 15.62 66 15.57C66 15.55 66 15.54 66 15.53C66.01 15.47 66.02 15.4 66.04 15.33C66.04 15.31 66.04 15.29 66.05 15.26C66.05 15.21 66.06 15.16 66.07 15.1L66.08 15.05C66.09 14.98 66.1 14.91 66.1 14.84C66.11 14.82 66.11 14.8 66.11 14.77C66.12 14.72 66.12 14.66 66.13 14.61C66.13 14.59 66.14 14.57 66.14 14.55C66.15 14.47 66.15 14.4 66.16 14.33C66.16 14.31 66.16 14.29 66.16 14.26C66.17 14.21 66.17 14.15 66.18 14.09C66.18 14.06 66.18 14.04 66.18 14.02C66.19 13.94 66.19 13.87 66.2 13.79C66.2 13.77 66.2 13.75 66.2 13.74C66.21 13.67 66.21 13.61 66.21 13.54C66.21 13.52 66.21 13.5 66.21 13.47C66.22 13.39 66.22 13.31 66.22 13.23C66.22 13.22 66.22 13.21 66.22 13.19C66.23 13.12 66.23 13.05 66.23 12.97C66.23 12.95 66.23 12.92 66.23 12.9C66.23 12.82 66.23 12.74 66.23 12.66L66.23 12.64C66.23 12.55 66.23 12.47 66.23 12.38L66.23 12.3C66.23 12.23 66.23 12.15 66.22 12.07L66.22 12.03C66.22 11.94 66.22 11.85 66.21 11.76C66.21 11.73 66.21 11.71 66.21 11.69C66.21 11.61 66.2 11.53 66.2 11.45C66.2 11.44 66.2 11.42 66.2 11.4C66.19 11.3 66.18 11.21 66.18 11.11L66.17 11.05C66.17 10.97 66.16 10.89 66.15 10.81C66.15 10.78 66.15 10.76 66.15 10.74C66.14 10.64 66.13 10.54 66.12 10.44C66.12 10.42 66.12 10.41 66.12 10.39C66.11 10.3 66.1 10.22 66.09 10.13C66.09 10.11 66.08 10.08 66.08 10.06C66.07 9.95 66.06 9.85 66.05 9.75C66.05 9.73 66.04 9.72 66.04 9.71C66.03 9.62 66.02 9.52 66 9.43C66 9.4 66 9.37 65.99 9.35C65.98 9.24 65.96 9.13 65.95 9.03C64.37 -1.63 53.18 0.1 53.18 0.1L53.54 2.39L46.77 9.17L47.07 11.78L49.63 13.28C49.74 13 49.89 12.74 50.07 12.5C51.72 10.69 54.93 9.27 55.85 8.98C56.03 8.92 56.14 8.89 56.14 8.89C51.74 14.28 52.24 20.45 52.44 21.93C52.23 21.96 52.08 22.2 52.08 22.48C52.08 22.79 52.26 23.04 52.49 23.04L53.91 23.04C51.56 23.98 49.69 25.75 48.72 27.98C48.72 27.99 48.72 27.99 48.71 27.99C48.64 28.16 48.58 28.33 48.51 28.5C48.51 28.5 48.51 28.5 48.51 28.5C48.5 28.55 48.48 28.59 48.47 28.64C48.46 28.66 48.45 28.67 48.45 28.69C48.43 28.73 48.42 28.78 48.41 28.82C48.4 28.84 48.39 28.86 48.39 28.88C48.38 28.92 48.36 28.97 48.35 29.01L48.33 29.08C48.32 29.12 48.31 29.16 48.3 29.2C48.29 29.22 48.28 29.25 48.28 29.28C48.27 29.32 48.26 29.35 48.25 29.39C48.24 29.43 48.23 29.47 48.22 29.51C48.21 29.55 48.2 29.59 48.19 29.64L47.63 29.64C47.52 29.63 47.41 29.65 47.31 29.69C47.21 29.73 47.12 29.78 47.04 29.86C46.96 29.93 46.9 30.01 46.86 30.11C46.82 30.2 46.8 30.3 46.8 30.41C46.8 30.51 46.82 30.61 46.86 30.71C46.9 30.8 46.96 30.89 47.04 30.96C47.12 31.03 47.21 31.09 47.31 31.12C47.41 31.16 47.52 31.18 47.63 31.18L67.59 31.18C67.7 31.18 67.81 31.16 67.91 31.12C68.01 31.09 68.1 31.03 68.18 30.96C68.26 30.89 68.32 30.8 68.36 30.71C68.4 30.61 68.42 30.51 68.42 30.41C68.42 30.3 68.4 30.2 68.36 30.11C68.32 30.01 68.26 29.93 68.18 29.86C68.1 29.78 68.01 29.73 67.91 29.69C67.81 29.65 67.7 29.63 67.59 29.64L67.59 29.63Z" fill="#595653" fill-opacity="1.000000" fill-rule="nonzero"/>
	<path id="Vector" d="" fill="#E7DBD0" fill-opacity="0" fill-rule="evenodd"/>
	<path id="Vector" d="M90.97 29.63L90.41 29.63C90.41 29.62 90.41 29.62 90.41 29.61L90.39 29.54C90.38 29.5 90.37 29.45 90.36 29.41C90.35 29.39 90.35 29.37 90.34 29.34C90.33 29.29 90.31 29.23 90.3 29.17L90.29 29.15C90.28 29.09 90.26 29.02 90.24 28.96L90.22 28.9C90.21 28.86 90.19 28.81 90.18 28.77C90.17 28.75 90.17 28.72 90.16 28.7C90.14 28.66 90.13 28.62 90.12 28.58C90.11 28.56 90.1 28.53 90.09 28.51C90.07 28.46 90.06 28.41 90.04 28.36C90.03 28.35 90.03 28.34 90.02 28.33C90 28.27 89.98 28.21 89.95 28.15C89.94 28.13 89.93 28.1 89.93 28.08C89.91 28.05 89.89 28 89.88 27.97L89.84 27.89C89.83 27.86 89.81 27.82 89.79 27.78C89.78 27.76 89.77 27.73 89.76 27.71C89.74 27.67 89.72 27.62 89.7 27.58C89.69 27.57 89.68 27.55 89.67 27.53C89.65 27.48 89.62 27.42 89.59 27.37L89.55 27.3L89.49 27.2L89.45 27.12C89.43 27.09 89.41 27.06 89.39 27.03C89.38 27 89.36 26.98 89.35 26.95C89.33 26.92 89.31 26.88 89.29 26.85L89.23 26.76C89.2 26.72 89.18 26.68 89.15 26.63C89.13 26.61 89.11 26.58 89.1 26.56C89.08 26.53 89.06 26.5 89.04 26.47C89.02 26.45 89 26.42 88.98 26.39C88.97 26.36 88.95 26.34 88.93 26.32C88.91 26.29 88.89 26.26 88.87 26.23L88.81 26.16C88.77 26.11 88.74 26.06 88.7 26.01L88.65 25.94C88.62 25.91 88.6 25.88 88.58 25.86L88.52 25.79C88.5 25.76 88.47 25.74 88.45 25.71L88.4 25.65L88.32 25.56L88.28 25.51C88.18 25.41 88.09 25.3 87.99 25.21L87.94 25.16L87.85 25.07L87.81 25.03C87.78 25 87.74 24.97 87.71 24.94L87.68 24.91C87.57 24.81 87.45 24.71 87.34 24.61L87.3 24.58C87.27 24.55 87.23 24.53 87.2 24.5L87.16 24.47C87.12 24.44 87.08 24.41 87.05 24.38L87.03 24.36C86.9 24.26 86.77 24.17 86.63 24.08L86.61 24.06C86.57 24.03 86.53 24.01 86.49 23.98L86.46 23.96C86.41 23.93 86.37 23.9 86.33 23.87L86.32 23.87C86.17 23.78 86.03 23.69 85.88 23.6L85.87 23.6C85.82 23.57 85.77 23.55 85.73 23.52L85.71 23.51C85.45 23.38 85.19 23.25 84.92 23.14L84.91 23.13C84.83 23.1 84.76 23.07 84.69 23.04L86.1 23.04C86.33 23.04 86.52 22.79 86.52 22.48C86.52 22.17 86.33 21.92 86.1 21.92L85.68 21.92C85.71 21.86 85.74 21.79 85.77 21.71C86.17 21.47 86.87 20.97 87.56 20.05L87.57 20.04C87.62 19.97 87.67 19.9 87.72 19.83L87.73 19.82C87.78 19.74 87.83 19.67 87.88 19.59L87.9 19.57C87.92 19.53 87.95 19.5 87.97 19.46C87.97 19.46 87.97 19.45 87.97 19.45C88 19.42 88.02 19.37 88.04 19.33L88.06 19.31C88.08 19.27 88.1 19.24 88.12 19.2C88.13 19.2 88.13 19.19 88.13 19.18C88.16 19.14 88.18 19.1 88.2 19.06L88.22 19.03C88.24 19 88.26 18.96 88.27 18.93C88.28 18.92 88.29 18.91 88.29 18.9C88.31 18.86 88.33 18.81 88.36 18.77L88.37 18.74C88.39 18.7 88.41 18.67 88.42 18.63L88.44 18.59C88.46 18.55 88.49 18.51 88.51 18.46L88.52 18.43C88.54 18.39 88.55 18.36 88.57 18.32L88.59 18.27C88.61 18.23 88.63 18.18 88.65 18.14C88.65 18.13 88.66 18.12 88.66 18.11C88.68 18.07 88.7 18.03 88.71 17.98L88.73 17.93C88.75 17.89 88.76 17.85 88.78 17.81L88.79 17.78C88.81 17.73 88.83 17.68 88.85 17.63L88.87 17.58C88.88 17.54 88.89 17.5 88.91 17.45C88.91 17.44 88.92 17.42 88.92 17.41C88.94 17.36 88.96 17.31 88.97 17.25C88.98 17.23 88.99 17.22 88.99 17.2L89.03 17.07C89.04 17.06 89.04 17.04 89.05 17.02C89.06 16.97 89.08 16.91 89.09 16.86C89.1 16.84 89.1 16.82 89.11 16.8C89.12 16.76 89.13 16.72 89.14 16.67C89.15 16.65 89.15 16.63 89.16 16.61C89.17 16.56 89.19 16.5 89.2 16.44L89.22 16.39C89.23 16.34 89.24 16.3 89.25 16.25L89.26 16.18C89.28 16.12 89.29 16.06 89.3 16C89.3 15.99 89.31 15.98 89.31 15.96C89.32 15.91 89.33 15.86 89.34 15.8C89.35 15.78 89.35 15.76 89.35 15.73C89.36 15.68 89.37 15.62 89.38 15.57C89.39 15.55 89.39 15.54 89.39 15.53C89.4 15.47 89.41 15.4 89.42 15.33C89.43 15.31 89.43 15.29 89.43 15.26C89.44 15.21 89.45 15.16 89.46 15.1L89.46 15.05C89.47 14.98 89.48 14.91 89.49 14.84C89.49 14.82 89.5 14.8 89.5 14.77C89.51 14.72 89.51 14.66 89.52 14.61C89.52 14.59 89.52 14.57 89.52 14.55C89.53 14.47 89.54 14.4 89.55 14.33C89.55 14.31 89.55 14.29 89.55 14.26C89.56 14.21 89.56 14.15 89.57 14.09C89.57 14.06 89.57 14.04 89.57 14.02C89.58 13.94 89.58 13.87 89.59 13.79C89.59 13.77 89.59 13.75 89.59 13.74C89.59 13.67 89.6 13.61 89.6 13.54C89.6 13.52 89.6 13.5 89.6 13.47C89.61 13.39 89.61 13.31 89.61 13.23C89.61 13.22 89.61 13.21 89.61 13.19C89.61 13.12 89.61 13.05 89.62 12.97C89.62 12.95 89.62 12.92 89.62 12.9C89.62 12.82 89.62 12.74 89.62 12.66L89.62 12.64C89.62 12.55 89.62 12.47 89.62 12.38L89.62 12.3C89.62 12.23 89.61 12.15 89.61 12.07L89.61 12.03C89.61 11.94 89.6 11.85 89.6 11.76C89.6 11.73 89.6 11.71 89.6 11.69C89.59 11.61 89.59 11.53 89.59 11.45C89.59 11.44 89.59 11.42 89.58 11.4C89.58 11.3 89.57 11.21 89.56 11.11L89.56 11.05C89.55 10.97 89.55 10.89 89.54 10.81C89.54 10.78 89.54 10.76 89.54 10.74C89.53 10.64 89.52 10.54 89.51 10.44C89.51 10.42 89.5 10.41 89.5 10.39C89.49 10.3 89.49 10.22 89.48 10.13C89.47 10.11 89.47 10.08 89.47 10.06C89.46 9.95 89.45 9.85 89.43 9.75C89.43 9.73 89.43 9.72 89.43 9.71C89.42 9.62 89.4 9.52 89.39 9.43C89.39 9.4 89.38 9.37 89.38 9.35C89.37 9.24 89.35 9.13 89.33 9.03C87.76 -1.63 76.57 0.1 76.57 0.1L76.92 2.39L70.16 9.17L70.45 11.78L73.02 13.28C73.13 13 73.28 12.74 73.45 12.5C75.11 10.69 78.32 9.27 79.24 8.98C79.42 8.92 79.52 8.89 79.52 8.89C75.13 14.28 75.63 20.45 75.83 21.93C75.62 21.96 75.46 22.2 75.46 22.48C75.46 22.79 75.65 23.04 75.88 23.04L77.29 23.04C74.94 23.98 73.08 25.75 72.11 27.98C72.1 27.99 72.1 27.99 72.1 27.99C72.03 28.16 71.96 28.33 71.9 28.5C71.9 28.5 71.9 28.5 71.9 28.5C71.88 28.55 71.87 28.59 71.85 28.64C71.85 28.66 71.84 28.67 71.84 28.69C71.82 28.73 71.81 28.78 71.8 28.82C71.79 28.84 71.78 28.86 71.78 28.88C71.76 28.92 71.75 28.97 71.74 29.01L71.72 29.08C71.71 29.12 71.69 29.16 71.68 29.2C71.68 29.22 71.67 29.25 71.66 29.28C71.65 29.32 71.64 29.35 71.63 29.39C71.63 29.43 71.62 29.47 71.61 29.51C71.6 29.55 71.59 29.59 71.58 29.64L71.02 29.64C70.91 29.63 70.8 29.65 70.7 29.69C70.6 29.73 70.51 29.78 70.43 29.86C70.35 29.93 70.29 30.01 70.25 30.11C70.21 30.2 70.18 30.3 70.18 30.41C70.18 30.51 70.21 30.61 70.25 30.71C70.29 30.8 70.35 30.89 70.43 30.96C70.51 31.03 70.6 31.09 70.7 31.12C70.8 31.16 70.91 31.18 71.02 31.18L90.98 31.18C91.09 31.18 91.2 31.16 91.3 31.12C91.4 31.09 91.49 31.03 91.57 30.96C91.64 30.89 91.71 30.8 91.75 30.71C91.79 30.61 91.81 30.51 91.81 30.41C91.81 30.3 91.79 30.2 91.75 30.11C91.71 30.01 91.64 29.93 91.57 29.86C91.49 29.78 91.4 29.73 91.3 29.69C91.2 29.65 91.09 29.63 90.98 29.64L90.97 29.63Z" fill="#595653" fill-opacity="1.000000" fill-rule="nonzero"/>
	<path id="Vector" d="" fill="#E7DBD0" fill-opacity="0" fill-rule="evenodd"/>
</svg>
